<svg width="1146" height="1547" viewBox="0 0 1146 1547" fill="none" xmlns="http://www.w3.org/2000/svg">
<path fill-rule="evenodd" clip-rule="evenodd" d="M600.029 648.038C575.127 629.069 512.608 620.539 486.031 638.803C459.779 657.144 456.918 686.804 444.685 714.089C433.143 708.645 414.083 716.442 410.737 727.155C406.587 732.207 406.4 746.403 403.538 753.196C279.01 773.024 260.104 870.142 245.115 980.397C225.286 1092.28 180.273 1203.92 199.814 1319.04C197.268 1322.73 195.26 1326.31 193.404 1330.57C188.956 1338.14 194.685 1348.85 203.657 1348.44C215.269 1347.42 226.766 1346.03 238.433 1345.59C270.775 1344.47 303.146 1344.6 335.501 1345.01L339.912 1345.07C502.968 1347.1 666.015 1351.1 829.078 1352.16C834.994 1352.17 837.89 1346.86 837.1 1341.63C835.509 1331.09 834.033 1320.54 832.493 1310C871.061 1320.19 912.063 1322.75 950.523 1311.07C953.213 1308.33 944.254 1309.81 942.833 1309.4C978.227 1285.2 967.657 1234.23 964.522 1197.52C945.026 1071.73 938.153 932.557 862.826 825.219C830.239 781.415 782.463 746.733 727.565 738.929L726.042 738.721C709.99 736.579 692.1 735.89 678.065 727.155C662.28 714.549 655.554 691.258 638.947 691.04C633.464 690.968 626.004 697.907 617.977 702.619C617.378 692.254 611.794 683.507 610.561 675.471L610.461 674.784C609.175 665.415 610.937 656.986 600.029 648.038ZM332.406 983.721C367.402 959.401 457.804 971.621 459.873 972.982C464.43 975.981 466.392 976.246 468.857 980.139C471.29 980.462 473.721 980.797 476.15 981.142C481.024 982.734 477.412 988.731 471.783 986.591C475.169 1001.2 465.205 1011.59 461.238 1026.03C459.95 1030.71 461.192 1039.15 461.238 1043.94C460.853 1050.05 454.102 1057.26 455.228 1063.39C459.228 1085.17 480.935 1106.43 471.783 1127.56C465.72 1139.49 447.485 1145.57 435.361 1149.63C410.243 1159.27 366.477 1149.27 351.883 1127.56C344.098 1115.97 335.08 1086.76 330.438 1077.7L329.409 1063.33C326.872 1027.6 324.616 989.134 332.406 983.721Z" fill="white"/>
<path fill-rule="evenodd" clip-rule="evenodd" d="M645.045 688.933C642.628 686.792 639.053 689.482 640.589 692.373C644.039 698.871 647.578 705.027 652.208 710.771C655.016 714.254 658.023 717.548 661.07 720.805C653.249 727.573 646.542 735.976 640.207 743.852C632.108 753.924 624.45 764.423 615.358 773.639C606.39 782.729 596.476 789.083 584.487 793.32L582.066 794.161C570.022 798.39 557.151 804.102 550.362 815.508C549.024 817.758 551.719 820.537 553.985 819.133C565.781 811.827 579.641 810.358 592.481 805.53C604.884 800.867 615.696 793.69 625.25 784.53C634.787 775.385 642.795 764.981 651.148 754.797C659.408 744.727 668.301 736.126 678.072 727.606C693.149 737.752 710.359 742.167 727.859 746.503L729.769 746.976C747.29 751.315 764.717 756.355 781.154 763.911C795.647 770.573 809.901 778.528 821.706 789.368C834.237 800.872 843.991 815.565 852.917 829.934C872.886 862.081 886.924 897.299 899.283 932.946C912.137 970.024 922.889 1007.84 931.569 1046.11C935.983 1065.58 939.569 1085.18 942.515 1104.93C943.934 1114.43 945.194 1123.96 946.3 1133.51C947.482 1143.71 947.753 1154.2 950.88 1164C952.221 1168.21 955.387 1169.95 958.555 1169.8L959.199 1177.85C960.052 1188.59 960.848 1199.33 961.117 1210.13C961.562 1228.09 961.36 1246 960.069 1263.92L959.886 1266.36C958.871 1279.44 956.603 1294.14 946.77 1303.72C936.588 1313.64 920.928 1316.76 907.203 1316.94C875.237 1317.35 844.467 1302.25 816.18 1288.99C787.048 1275.34 758.711 1260.19 731.054 1243.75C716.969 1235.39 703.037 1226.74 689.282 1217.84C682.532 1213.47 675.829 1209.03 669.177 1204.51C665.367 1201.93 661.756 1199.09 657.878 1196.8C659.778 1195.03 660.627 1192.25 659.035 1189.82C670.247 1180.08 674.914 1162.71 675.46 1148.65C675.901 1137.3 674.231 1125.99 672.914 1114.75C672.249 1109.08 671.428 1103.42 670.575 1097.78C670.238 1095.55 669.981 1093.16 669.588 1090.81C699.865 1107.45 730.991 1122.27 762.94 1135.44C779.317 1142.19 795.904 1148.26 812.72 1153.82L816.128 1154.94C832.061 1160.16 848.375 1165.09 864.847 1168.07C865.727 1168.23 866.442 1166.93 865.502 1166.52C849.45 1159.43 832.842 1153.46 816.549 1146.93L813.872 1145.84V1145.84C814.179 1145.82 814.498 1145.78 814.831 1145.7C824.386 1143.39 833.867 1139.84 843.239 1136.85C851.937 1134.07 861.709 1132.32 869.839 1128.13C870.465 1127.81 870.115 1126.94 869.505 1126.89C860.367 1126.26 850.448 1128.92 841.489 1130.49L838.123 1131.08C832.485 1132.08 826.722 1133.15 821.111 1134.54C820.908 1132.66 819.858 1130.77 818.364 1129.66C801.923 1117.49 803.593 1092.89 801.835 1074.75L800.531 1061.28C798.237 1037.71 795.811 1014.15 792.125 990.754C791.928 989.505 789.996 989.863 789.988 991.043C789.798 1020.04 791.986 1048.9 793.083 1077.86L793.253 1082.6C793.859 1100.47 794.335 1119.02 805.582 1132.77C804.01 1131.85 801.883 1131.85 800.609 1133.36C799.043 1135.23 798.139 1137.32 798.168 1139.37C788.004 1135.11 777.885 1130.74 767.815 1126.27C735.439 1111.93 703.743 1095.87 672.884 1078.5C669.564 1076.63 666.407 1078.1 664.765 1080.56L664.528 1080.53C664.488 1080.52 664.448 1080.52 664.407 1080.52L664.171 1080.51C664.162 1080.51 664.153 1080.51 664.145 1080.51C659.801 1078.12 653.884 1079.82 650.156 1083.3C650.046 1083.41 649.952 1083.52 649.855 1083.63C645.135 1081.51 640.729 1078.65 636.73 1075.03C628.547 1067.61 621.615 1058.43 615.572 1049.23C604.444 1032.29 594.992 1013.45 579.96 999.501C567.746 988.17 552.604 981.115 536.718 976.686C536.785 976.222 536.607 975.727 536.287 975.398C535.47 974.562 534.888 974.272 533.834 974.78C533.75 974.821 533.7 974.877 533.666 974.938L532.116 972.289C531.269 970.851 530.401 969.403 530.1 969.022C528.296 966.751 526.44 964.497 524.555 962.29C521.36 958.553 517.72 954.865 513.504 952.274C504.273 946.602 494.57 949.812 485.08 952.912C479.346 954.786 473.631 956.72 467.907 958.622L467.316 958.815C463.048 960.187 458.054 961.387 456.145 965.91C455.39 967.701 455.273 969.558 455.625 971.361C415.087 961.048 370.062 965.786 330.504 977.892C328.986 978.356 327.469 979.605 327.15 981.246C322.617 1004.5 320.598 1028.34 322.649 1051.99C324.419 1072.4 328.94 1092.41 337.461 1111.1L337.945 1112.15C345.952 1129.47 358.644 1150.82 378.026 1156.25C389.729 1159.53 402.673 1157.59 414.609 1156.99C426.209 1156.41 438.066 1156.32 449.557 1154.5C459.79 1152.87 468.756 1148.29 475.08 1139.96C480.536 1132.78 483.409 1124.1 485.763 1115.47C486.84 1115.81 487.91 1116.18 488.964 1116.59C493.409 1118.33 497.176 1121.13 500.582 1124.43C507.774 1131.4 513.352 1139.86 520.877 1146.51C527.689 1152.52 535.45 1157.2 543.776 1160.8C561.028 1168.26 579.535 1171.24 597.784 1175.19L599.056 1175.47C612.794 1178.48 626.816 1182.19 638.942 1189.34C639.179 1191.45 640.139 1193.43 641.676 1194.73C639.537 1196.74 638.632 1199.92 640.511 1202.9C645.761 1211.24 654.803 1215.98 662.921 1221.31L663.449 1221.66C671.435 1226.95 679.49 1232.14 687.611 1237.23C704.12 1247.57 720.974 1257.34 738.066 1266.68C765.557 1281.7 793.638 1295.87 822.228 1308.73C820.512 1317.17 821.139 1325.88 819.849 1334.38L819.651 1335.59C819.1 1338.75 819.844 1341.39 822.017 1343.45L822.247 1343.66L822.243 1343.63L822.447 1343.82L822.515 1343.88L822.492 1343.86C822.742 1344.09 823.001 1344.3 823.264 1344.49L823.6 1344.7V1344.7C825.692 1345.97 828.386 1345.96 830.529 1344.84L830.773 1344.7L831.185 1344.47C834.016 1342.84 835.968 1338.8 834.793 1335.59C831.907 1327.72 830.817 1319.31 828.151 1311.37L830.266 1312.32V1312.32L833.053 1313.54C863.194 1326.57 896.674 1337.55 929.515 1328.66C944.025 1324.74 957.588 1316.43 964.848 1302.88C971.992 1289.56 973.002 1274.08 973.382 1259.26C973.85 1240.96 972.869 1222.39 970.457 1204.25C968.838 1192.07 966.88 1179.66 963.86 1167.61C965.413 1166.24 966.555 1164.28 966.857 1161.84C968.282 1150.33 965.787 1138.37 964.26 1126.92C962.768 1115.74 961.12 1104.58 959.255 1093.46C955.492 1070.99 951.118 1048.58 946.027 1026.38C936.966 986.872 925 948.066 910.595 910.187L909.333 906.888C896.022 872.266 880.609 838.381 859.147 807.966C848.88 793.414 838.028 780.221 823.521 769.735C809.93 759.91 794.601 752.836 778.781 747.429C762.943 742.018 746.665 738.392 730.1 736.137C713.276 733.846 695.518 732.442 679.824 725.539C681.809 721.979 680.106 717.172 676.764 714.964C665.52 707.533 655.123 697.866 645.045 688.933ZM285.098 1012.08C284.627 1011.36 283.508 1011.82 283.715 1012.66C289.184 1035.07 294.317 1057.53 297.67 1080.37C303.721 1121.59 302.608 1163.35 302.113 1204.88L302.088 1207.03C301.834 1229.4 301.481 1251.77 300.741 1274.13C300.368 1285.43 299.63 1296.84 300.031 1308.15C300.25 1314.28 301.884 1320.08 302.463 1326.14C302.971 1331.44 302.519 1336.82 302.266 1342.13C302.096 1345.65 307.302 1345.5 307.656 1342.13L308.109 1337.76C308.697 1332.23 309.424 1326.73 311.235 1321.44C313.413 1315.08 314.458 1308.83 315.214 1302.14C316.371 1291.9 316.886 1281.56 317.332 1271.25L317.638 1264.12C319.503 1221.02 319.438 1177.73 316.418 1134.68L316.197 1131.6C313.207 1090.91 308.019 1046.94 285.098 1012.08ZM401.67 755.611C403.099 755.023 402.598 752.863 401.016 753.239L398.14 753.926C377.061 758.976 356.365 764.448 336.691 773.846C317.004 783.249 300.337 797.287 287.093 814.549C261.349 848.104 250.65 888.883 242.205 929.624C232.819 974.894 224.273 1020.33 214.805 1065.59L213.047 1074.02C204.287 1116.17 196.016 1158.34 189.921 1200.99L189.484 1204.09C183.338 1247.95 179.641 1293.32 186.347 1337.29C187.674 1345.99 202.146 1343.83 201.58 1335.23C199.946 1310.39 198.776 1285.67 199.906 1260.76C201.038 1235.86 203.374 1211.06 206.855 1186.37C209.785 1165.59 214.152 1145.07 218.017 1124.45L218.623 1121.2C221.859 1103.67 225.195 1086.15 228.524 1068.64L233.499 1042.41C240.955 1003.14 248.557 963.84 257.147 924.818L257.657 922.522C266.063 884.98 278.456 845.655 303.671 815.843C329.259 785.588 365.89 770.351 401.67 755.611ZM494.648 1153.81C494.033 1152.44 491.88 1152.59 491.219 1153.81C488.626 1158.6 488.337 1164.71 487.847 1170.11L487.796 1170.67C487.172 1177.26 486.62 1183.87 486.282 1190.49C485.642 1203.04 485.335 1215.58 485.375 1228.14C485.415 1241.03 485.674 1253.89 486.368 1266.75L486.557 1270.2C487.19 1281.38 488.253 1293.84 493.562 1303.61C495.492 1307.17 500.741 1306.12 501.858 1302.53C505.52 1290.77 503.64 1276.82 502.701 1264.77L501.971 1255.37C501.249 1245.97 500.561 1236.57 500.014 1227.15C499.266 1214.28 498.648 1201.39 498.054 1188.51C497.861 1184.32 497.652 1180.13 497.432 1175.95L497.093 1169.67C496.803 1164.43 496.827 1158.66 494.648 1153.81ZM906.389 1170.48L904.768 1168.92C899.792 1164.04 893.503 1156.54 886.146 1157.01C883.212 1157.19 881.343 1159.63 881.951 1162.52C883.251 1168.69 889.545 1171.89 894.075 1175.66C899.039 1179.79 903.716 1184.2 908.385 1188.65C912.527 1192.6 916.51 1196.66 920.398 1200.85L921.852 1202.42C923.245 1203.94 933.169 1212.92 932.096 1215.25L932.038 1215.36C931.739 1215.8 932.236 1216.42 932.732 1216.26C937.017 1214.91 936.75 1211.23 935.13 1207.51C932.016 1200.36 926.565 1193.74 921.804 1187.63C917.057 1181.54 911.918 1175.86 906.389 1170.48V1170.48ZM479.12 991.106C482.434 983.271 494.641 983.436 501.572 983.904C519.024 985.084 537.907 989.501 553.435 997.661C569.534 1006.12 580.379 1019.67 590.082 1034.66L590.536 1035.37C599.993 1050.07 609.102 1067.48 623.911 1077.59C631.454 1082.74 640.262 1087.45 649.414 1089.49C650.042 1090.59 651.06 1091.47 652.395 1091.78L653.015 1091.93C655.622 1092.5 659.671 1093.14 663.169 1092.76C663.146 1094.47 663.164 1096.17 663.12 1097.79C662.997 1102.44 662.945 1107.1 662.945 1111.75C662.943 1121.5 663.466 1131.26 663.06 1141C662.7 1149.62 661.483 1158.62 657.347 1166.32C654.313 1171.98 650.309 1175.72 645.476 1179.29C633.587 1172.04 620.142 1167.62 606.497 1164.3C589.995 1160.28 573.099 1157.6 556.972 1152.15C549.21 1149.53 541.748 1146.1 534.987 1141.43C527.812 1136.49 522.331 1129.79 516.692 1123.24L515.81 1122.22C510.055 1115.62 503.775 1109.3 495.642 1105.72C488.638 1102.64 479.406 1102.09 473.282 1097.32C470.08 1094.82 469.811 1091.2 469.475 1087.49C473.397 1088.05 477.549 1087.15 481.458 1086.69L483.483 1086.45C487.18 1086.01 490.791 1085.53 494.43 1084.59C495.106 1084.42 495.106 1083.4 494.43 1083.22C490.13 1082.11 485.868 1081.64 481.458 1081.12L480.422 1080.99C476.433 1080.47 472.24 1079.68 468.328 1080.56C467.625 1077.88 466.612 1075.33 465.189 1072.78C463.193 1069.19 459.415 1065.12 458.904 1060.93C458.752 1059.67 459.044 1058.2 459.634 1057.09L459.837 1056.71C460.085 1056.27 460.379 1055.82 460.809 1055.54C460.856 1055.6 460.957 1055.66 461.176 1055.73C464.187 1056.68 466.814 1055.2 468.208 1052.93C474.127 1053.67 480.586 1053.42 486.137 1053.66L491.749 1053.94C497.745 1054.21 504.014 1054.33 509.649 1053.12C510.436 1052.95 510.674 1051.64 509.886 1051.3C502.959 1048.34 494.555 1047.39 487.139 1046.26C482.997 1045.62 478.824 1045.13 474.67 1044.57C471.904 1044.2 468.968 1043.58 466.102 1043.44C458.916 1034.49 462.788 1020.37 472.788 1016.52C476.431 1018.12 479.707 1017.19 483.687 1016.85C487.659 1016.51 491.642 1016.28 495.631 1016.29C503.624 1016.33 512.093 1018.43 520.008 1017.53C521.296 1017.38 522.492 1015.66 521.212 1014.62C515.153 1009.67 506.47 1008.06 498.779 1007.01L497.185 1006.79C494.607 1006.45 491.471 1005.96 488.219 1005.67C487.484 1004.23 486.164 1003.15 484.182 1002.88C483.593 1002.8 483.001 1002.75 482.409 1002.7L482.418 1002.64V1002.64C477.584 1002.41 477.794 994.241 479.12 991.106ZM810.077 1143.91C810.162 1144.05 810.256 1144.17 810.355 1144.29L810.508 1144.47L809.713 1144.15L810.077 1143.91V1143.91ZM394.762 973.599C415.109 971.412 435.486 971.873 455.894 972.461C457.526 977.801 463.208 982.352 468.713 982.524C464.401 989.088 463.956 997.972 466.98 1004.93C460.561 1007.49 455.03 1012.08 451.673 1018.62C447.018 1027.69 447.627 1037.77 452.228 1046.15C448.301 1049.71 445.984 1055.48 446.216 1060.93C446.475 1067 450.091 1072.18 453.097 1077.21C456.344 1082.64 456.453 1087.43 457.451 1093.51C458.91 1102.42 464.917 1107.83 472.645 1111.2L472.234 1112.82C470.242 1120.58 467.763 1128.76 462.068 1134.43C454.742 1141.73 443.377 1141.66 433.698 1142.13L433.231 1142.15C424.368 1142.59 415.509 1143.11 406.649 1143.62L400.004 1143.99C389.803 1144.55 380.007 1144.62 371.679 1137.87C358.084 1126.86 348.763 1108.63 342.864 1092.5C330.482 1058.64 330.333 1021.48 336.017 986.21C355.078 980.064 374.856 975.738 394.762 973.599ZM563.977 1029.78L563.827 1029.79C559.638 1030.27 556.76 1033.66 555.735 1037.69C554.246 1043.54 554.976 1048.83 551.394 1054.11C547.709 1059.54 545.443 1063.89 544.907 1070.6C544.687 1073.36 544.788 1076.11 544.174 1078.82L543.728 1080.71C543.255 1082.73 542.868 1084.67 543.104 1086.84C543.318 1088.82 544.281 1090.36 546.263 1090.99C552.722 1093.06 557.71 1088.3 559.379 1082.28C560.82 1077.07 558.895 1070.88 560.929 1065.99C562.056 1063.28 564.134 1061.02 565.308 1058.29C566.471 1055.59 567.056 1052.77 567.242 1049.83C567.596 1044.28 562.685 1037.61 565.425 1032.57C566.009 1031.5 565.348 1029.75 563.977 1029.78ZM649.778 972.462C645.404 971.573 640.442 969.535 636.128 971.229C633.911 972.101 632.815 974.805 634.689 976.685C637.941 979.947 642.668 980.128 647.049 980.897L647.435 980.967C652.615 981.926 657.804 982.835 663.001 983.697C672.777 985.316 682.577 986.748 692.41 987.965C702.511 989.216 712.639 990.329 722.781 991.166L726.708 991.488C735.275 992.174 744.19 992.691 752.597 991.378C753.818 991.187 753.621 989.408 752.597 989.096C743.387 986.308 733.285 985.56 723.764 984.381C713.642 983.124 703.536 981.797 693.458 980.223C683.395 978.651 673.345 976.964 663.333 975.099C658.807 974.257 654.289 973.378 649.778 972.462ZM491.947 963.51C495.785 962.15 500.008 960.136 504.167 960.81C511.34 961.973 517.724 968.963 523.401 973.567L520.55 973.012C505.964 970.208 486.647 967.187 474.403 976.464C474.371 976.41 474.347 976.357 474.312 976.303C473.323 974.802 472.178 973.63 470.928 972.346C470.809 972.233 470.693 972.116 470.58 971.998L469.905 971.28L471.448 970.745C474.751 969.577 478.665 968.069 479.284 967.849L479.327 967.834C483.538 966.407 487.755 964.996 491.947 963.51ZM611.794 657.668C612.394 649.945 600.379 650.008 599.783 657.668C598.485 674.389 602.247 690.952 610.343 705.611C610.403 705.718 610.469 705.813 610.531 705.914C605.467 708.55 600.345 711.079 595.11 713.339C588.412 716.232 581.589 718.865 574.643 721.1C568.36 723.122 560.62 723.92 555.337 728.128C544.199 737 548.384 755.413 550.526 767.348L550.861 769.232C551.928 775.374 552.699 781.675 550.111 787.569C547.347 793.865 541.757 798.535 536.77 803.04L535.763 803.954C531.346 807.979 526.298 812.871 523.058 818.328C520.1 812.211 516.068 807.212 511.805 801.584C508.763 797.568 510.928 796.244 513.113 792.32C515.216 788.544 516.243 784.518 515.586 780.211C514.372 772.255 508.016 766.507 501.688 762.189C494.216 757.092 485.876 753.316 478.152 748.574C462.279 738.832 446.822 727.693 432.895 715.322C432.511 714.98 431.845 715.428 432.153 715.895C443.154 732.634 456.053 747.098 471.906 759.375C478.335 764.353 485.088 768.483 491.886 772.823L493.84 774.078C496.569 775.847 499.974 778.21 501.208 781.222C502.45 784.25 499.802 786.537 498.376 789.045C493.85 797.012 496.034 804.445 501.4 811.201L501.65 811.513C506.983 818.086 511.024 824.2 512.957 832.598C517.11 850.638 511.325 869.429 505.27 886.365L505.031 887.032C501.755 896.161 498.274 905.223 495.428 914.498L494.645 917.062C492.066 925.596 489.955 934.013 492.847 942.786C493.831 945.77 497.899 946.475 499.589 943.667C505.55 933.763 507.036 921.845 510.773 910.957C514.414 900.345 518.596 889.924 522.114 879.269C526.643 865.55 529.675 850.782 528.029 836.392C528.078 836.308 528.131 836.229 528.171 836.141L529.324 833.618C532.469 826.786 535.505 820.82 541.223 815.375C547.187 809.694 553.661 804.666 558.354 797.79C568.547 782.853 562.243 766.238 561.012 749.906L560.871 747.904C560.647 744.513 560.525 739.904 562.739 737.558C565.23 734.916 571.071 734.241 574.376 733.072C582.916 730.049 591.333 726.526 599.349 722.295C606.979 718.269 614.371 713.821 621.253 708.61L624.741 705.985C630.244 701.831 635.951 697.294 639.64 691.64C640.066 690.989 639.343 689.939 638.572 690.25C632.414 692.75 626.788 696.726 621.027 700.185C620.937 699.974 620.833 699.761 620.715 699.548C613.587 686.643 610.655 672.345 611.794 657.668ZM415.094 746.083C412.641 739.353 401.459 739.873 401.905 747.869C402.247 754.012 404.855 759.557 407.239 765.135L407.493 765.733C409.954 771.544 412.797 777.001 416.199 782.327C422.699 792.509 430.312 801.959 438.444 810.876C445.816 818.961 455.493 823.905 466.643 823.084C471.341 822.738 476.084 821.542 480.2 819.194C485.09 816.405 490.4 808.03 496.639 810.059C497.242 810.255 497.805 809.371 497.283 808.952C490.082 803.15 481.907 812.146 475.012 814.313C464.623 817.578 453.96 813.968 447.273 805.566C440.291 796.794 433.865 786.972 427.997 777.42C425.017 772.571 422.298 767.537 419.95 762.349C417.58 757.113 417.041 751.422 415.094 746.083ZM431.842 704.666C432.144 703.736 430.99 702.852 430.174 703.383C425.442 706.465 421.341 710.537 416.976 714.106C412.133 718.066 407.254 721.945 402.3 725.765C395.078 731.334 403.454 741.587 409.812 735.503C418.511 727.18 428.04 716.298 431.842 704.666ZM457.824 672.091C455.901 664.675 444.53 667.734 446.187 675.063L446.242 675.286C449.38 687.393 444.91 699.717 435.368 707.566L435.017 707.851C428.98 712.684 437.533 721.132 443.51 716.346C456.559 705.899 461.987 688.154 457.824 672.091Z" fill="black"/>
<path fill-rule="evenodd" clip-rule="evenodd" d="M361.627 488.423C363.798 469.335 360.988 429.438 360.8 427.014C359.609 411.691 366.787 351.18 380.355 356.755C403.116 338.731 433.431 334.751 461.778 332.85C520.66 328.9 583.299 337.967 628.766 377.606C651.251 398.191 673.141 428.131 671.382 459.305C691.811 488.855 720.611 529.389 695.157 563.934C686.505 574.971 672.754 579.081 661.885 587.44C640.022 605.08 626.306 630.395 604.236 647.929C545.766 700.488 446.482 711.467 389.035 651.686C344.612 608.391 351.795 543.618 359.609 488.423C364.862 451.315 357.39 525.661 361.627 488.423Z" fill="white"/>
<path fill-rule="evenodd" clip-rule="evenodd" d="M540.436 251.905C524.689 248.726 508.519 246.748 492.437 247.343L491.198 247.392C479.098 247.875 463.775 248.945 453.219 255.984C452.612 255.374 451.635 255.061 450.75 255.484C438.206 261.473 424.41 265.804 411.203 270.106C398.056 274.388 384.417 277.215 370.638 278.354C365.453 278.783 361.017 284.383 364.299 289.405C365.08 290.602 365.841 291.811 366.598 293.023C365.331 292.891 364.064 292.754 362.797 292.626C358.628 292.206 354.463 296.658 354.71 300.719C354.864 303.273 355.139 305.796 355.547 308.29C353.959 308.257 352.38 308.495 350.855 309.14C343.132 312.402 343.669 321.605 344.247 328.606C345.048 338.322 348.681 348.613 355.426 355.885C350.39 361.117 346.825 367.366 344.698 374.787C343.156 380.206 342.297 385.978 342.721 391.619L342.856 393.308C343.38 399.43 344.422 406.207 348.824 410.611C351.084 412.882 353.868 413.709 356.522 413.447C354.917 427.554 353.889 441.743 352.92 455.881L352.466 462.638C350.306 495.314 348.682 528.202 349.107 560.931C349.501 591.518 355.543 621.207 374.297 646.042C391.377 668.656 415.9 685.327 443.642 691.665C458.592 695.085 473.855 695.328 488.987 693.148C496.322 692.088 503.706 690.464 510.668 687.9C518.374 685.055 523.912 680.867 529.097 674.59C531.55 671.613 530.369 665.276 525.486 665.871C518.1 666.767 511.358 667.847 504.277 670.032L503.263 670.352C496.21 672.612 488.907 674.297 481.533 675.014C466.431 676.477 451.098 675.004 436.63 670.422C413.075 662.955 392.788 646.314 379.784 625.405C364.35 600.621 362.605 572.486 362.827 543.988C363.066 512.717 364.083 481.427 365.743 450.188L366.025 444.982C366.903 428.907 367.75 412.821 368.496 396.735C368.728 391.69 369.081 386.604 369.718 381.568C375.537 378.157 380.753 373.455 384.153 367.652C390.982 370.478 398.165 372.516 404.774 374.141C420.081 377.907 435.974 378.821 451.555 376.463C455.757 378.2 460.044 379.727 464.396 381.04C465.572 381.562 466.748 382.075 467.924 382.577C478.416 387.068 489.059 390.872 500.135 393.658L502.856 394.336C508.684 395.774 515.015 397.189 521.219 397.634C522.238 398.027 523.337 398.36 524.539 398.653C530.187 400.025 536.049 400.459 541.839 399.975C547.479 399.5 551.554 393.799 548.447 388.461C546.177 384.565 543.886 380.68 541.576 376.805C549.616 380.155 557.919 382.941 566.292 385.302C574.746 387.684 583.321 389.692 591.906 391.538C596.496 392.517 601.106 393.385 605.686 394.364C608.964 395.06 613.998 395.424 616.673 397.583C619.627 399.955 620.465 405.485 621.585 408.895C623.058 413.326 624.44 417.776 625.701 422.277C628.212 431.258 630.27 440.37 631.864 449.574C633.458 458.787 634.528 468.091 635.124 477.426C635.718 486.75 635.456 496.135 636.414 505.419C636.929 510.344 642.214 512.876 646.118 509.435C646.576 509.032 647.038 508.624 647.495 508.211L648.176 507.589C651.517 504.561 654.755 501.352 657.427 497.74C657.911 497.073 658.375 496.377 658.809 495.671C658.88 495.671 658.94 495.651 659.011 495.6L659.752 495.042C667.911 488.968 681.541 481.048 689.497 491.14C692.032 494.355 693.33 498.449 694.407 502.398L696.297 509.466C697.52 514.081 698.671 518.721 699.344 523.442C700.867 534.018 700.101 546.208 692.826 554.685C689.921 558.076 685.916 560.497 681.448 561.133C678.955 561.476 676.494 561.052 674.022 560.74C671.51 560.427 669.09 560.931 666.577 560.689C662.582 560.296 660.837 565.079 662.33 568.086C663.137 569.701 664.086 571.093 665.165 572.274C664.298 573.021 663.47 573.828 662.673 574.676C660.312 575.433 658.195 577.057 656.61 579.207C655.329 580.942 654.664 582.83 654.552 584.818C654.412 585.312 654.291 585.817 654.179 586.331L652.015 589.845C651.539 590.616 651.064 591.377 650.588 592.124C645.08 600.802 638.966 608.149 631.37 615.071C624.056 621.732 616.118 627.696 609.247 634.84L608.437 635.689C602.032 642.441 595.28 650.614 597.787 660.432C598.432 662.955 601.954 664.771 604.253 663.066C611.648 657.576 615.371 648.877 621.645 642.217C628.102 635.355 635.255 629.189 641.73 622.347C647.855 615.889 652.687 608.573 656.328 600.52C657.781 602.124 659.899 603.265 662.834 603.709C667.878 604.465 672.58 601.509 674.779 597.139C676.192 597.765 677.633 598.33 679.087 598.774C686.734 601.115 691.545 592.608 688.66 586.321C687.117 582.951 685.19 580.024 682.799 577.562C690.275 576.533 697.881 572.668 702.794 567.844C715.121 555.724 716.815 537.509 714.041 521.313C712.568 512.725 710.027 504.036 706.727 495.974C706.153 494.571 705.537 493.158 704.862 491.765C705.235 491.755 705.619 491.594 705.861 491.281C708.09 488.233 710.803 485.741 712.458 482.33C713.982 479.202 715.675 476.033 716.877 472.774C719.347 466.103 720.558 458.575 721.365 451.521C723.03 437.081 722.385 422.731 720.175 408.381C716.413 383.94 707.326 360.55 693.938 340.026C694.667 339.643 695.365 339.181 696.016 338.634L696.338 338.353L696.86 337.881C700.681 334.423 700.351 327.941 696.86 324.438L695.758 323.333C694.362 321.946 693.158 320.846 690.903 319.336C690.57 319.113 690.23 318.903 689.886 318.707C691.067 316.526 691.476 313.974 690.654 311.16C687.789 301.355 673.686 301.702 664.747 305.978C654.858 297.149 643.892 289.485 632.006 283.279C603.698 268.505 571.69 258.202 540.436 251.905ZM686.763 510.142C681.477 508.416 674.455 512.039 669.704 514.219C663.681 516.984 658.557 521.071 653.593 525.39C651.122 527.549 650.679 531.081 651.293 534.099C651.355 534.401 651.414 534.714 651.486 535.027C652.142 538.246 655.733 540.779 658.911 540.688C665.559 540.507 668.725 534.765 672.489 529.901C672.932 530.688 673.487 531.414 674.174 531.959L674.638 532.322C676.2 533.512 677.921 534.463 679.985 534.371C681.447 534.3 682.849 533.927 684.141 533.251C687.369 531.545 688.791 527.368 687.914 523.967C687.369 521.827 686.118 520.152 684.484 518.992L685.093 518.575C686.397 517.668 687.585 516.711 688.512 515.299L688.721 514.965H688.64C689.649 513.23 688.992 510.868 686.763 510.142Z" fill="black"/>
<path fill-rule="evenodd" clip-rule="evenodd" d="M418.067 591.173C421.396 595.527 427.424 598.861 434.174 600.456C440.607 601.976 447.716 601.914 453.852 599.575L454.378 599.365C458.966 597.46 463.369 593.611 465.041 589.596C465.706 587.999 465.931 586.376 465.476 584.862C465.066 583.5 464.107 582.246 462.509 581.169C462.007 580.831 461.334 580.806 460.693 580.919C459.897 581.059 459.113 581.432 458.64 581.935C456.015 584.727 452.207 587.449 447.7 587.402C444.222 587.367 441.382 585.993 438.628 584.441L436.692 583.332C434.825 582.266 432.931 581.265 430.789 580.807C426.953 579.988 422.301 581.485 419.466 583.955C418.23 585.032 417.332 586.297 417.088 587.661C416.883 588.806 417.171 590.001 418.067 591.173ZM438.008 515.028C430.39 519.66 418.783 530.461 426.978 541.944C436.624 552.069 450.513 540.46 457.357 535.21C463.703 531.141 470.833 541.606 464.945 546.357C415.49 582.984 395.42 516.239 434.155 509.582C438.42 508.848 440.004 513.595 438.008 515.028ZM523.949 443.838L521.76 443.238L519.529 442.635L518.02 442.236C507.655 439.522 496.222 437.134 485.943 438.3C482.195 438.726 479.152 440.836 478.621 444.764C478.175 448.079 480.316 452.356 483.961 452.945C496.033 454.899 508.392 454.265 520.52 456.279C526.56 457.282 532.553 458.526 538.57 459.647C543.145 460.501 547.872 460.8 552.486 461.491L551.426 461.638C551.055 461.688 551.147 462.313 551.514 462.288C553.034 462.136 554.558 462.112 556.083 462.219L556.737 462.273C557.733 462.413 558.32 461.224 557.432 460.621C551.81 456.805 547.04 452.67 540.745 449.857C535.3 447.425 529.696 445.42 523.949 443.838ZM429.587 437.986C421.617 429.927 404.669 433.024 395.188 436.711C389.777 438.816 384.632 441.477 380.347 445.458L379.929 445.849L379.286 446.468C376.393 449.301 373.167 453.2 373.626 457.284C373.696 457.906 374.035 458.618 374.738 458.743C378.535 459.416 382.265 457.412 385.771 456.206L388.094 455.409C391.581 454.221 395.09 453.085 398.686 452.265C403.157 451.248 407.718 450.66 412.308 450.718C416.947 450.779 421.931 452.089 426.35 450.246C431.279 448.192 433.835 442.283 429.587 437.986ZM508.32 502.982C510.353 505.059 513.038 506.231 516.475 505.534C519.161 504.99 524.275 502.288 528.359 498.128C531.154 495.282 533.491 491.726 534.126 487.606C534.274 486.649 534.781 486.036 535.448 485.65C535.974 485.344 536.668 485.191 537.424 485.268C538.065 485.333 538.747 485.565 539.273 485.873C540.275 486.46 540.685 487.292 540.768 487.914C541.572 493.912 539.256 499.863 535.645 504.881C530.773 511.653 523.618 516.615 519.413 517.777C512.216 519.766 504.633 518.182 499.042 513.172C494.572 509.166 492.28 503.946 490.154 498.579L489.744 497.539C489.265 496.321 488.791 495.112 488.288 493.916C487.28 491.519 487.603 489.448 488.58 487.833C489.663 486.044 491.661 484.785 493.885 484.398C495.941 484.041 498.142 484.432 499.878 485.688C501.346 486.749 502.529 488.431 502.949 490.917C503.633 494.96 505.219 499.599 508.015 502.66L508.32 502.982ZM384.918 479.581C386.595 478.707 387.907 478.443 389.767 479.001C390.796 479.31 391.812 479.902 392.608 480.698C393.397 481.487 393.966 482.469 394.187 483.557C394.731 486.244 396.201 488.759 398.295 490.398C400.085 491.799 402.344 492.542 404.85 492.123C407.554 491.672 410.13 489.937 411.904 487.891C412.399 487.321 412.804 486.686 413.196 486.044L413.43 485.658C414.304 484.214 415.154 482.872 416.359 481.812C416.816 481.408 417.505 481.129 418.172 481.129C418.443 481.129 418.718 481.173 418.981 481.255C421.672 483.957 422.189 486.007 422.103 488.04C422.012 490.172 421.171 492.331 419.813 494.345C416.628 499.07 410.58 502.944 406.499 503.821C400.91 505.022 395.359 503.58 390.908 500.457C386.329 497.244 382.936 492.256 381.878 486.634C381.624 485.28 381.732 483.818 382.247 482.551C382.751 481.313 383.629 480.252 384.918 479.581Z" fill="black"/>
<path fill-rule="evenodd" clip-rule="evenodd" d="M416.641 627.994C426.036 619.621 436.567 602.788 450.064 616.107C453.402 619.87 454.754 628.306 459.858 629.961C466.637 632.161 473.356 624.986 475.666 619.476C485.119 588.862 446.044 580.465 423.784 585.411C412.909 589.879 404.899 607.861 404.415 617.246C404.102 623.553 409.438 632.827 416.641 627.994M345.763 580.807C345.855 580.4 345.983 580.033 346.137 579.699C350.292 578.127 353.58 579.73 355.612 582.723C355.545 583.467 355.323 584.22 355.183 584.958C356.751 588.262 358.165 592.35 360.289 595.205C360.709 595.237 361.144 595.193 361.562 595.072C396.782 598.751 379.587 561.888 415.31 552.732C442.924 548.175 492.833 553.395 505.86 582.147C516.133 628.07 568.372 596.071 585.524 572.188C603.825 550.452 615.658 523.891 627.067 498.118C629.478 492.664 637.003 496.564 636.185 501.798C646.731 522.96 646.38 548.38 648.992 571.564C653.434 617.817 657.763 682.683 614.801 710.925C558.826 774.215 419.048 796.549 354.487 738.397C332.138 690.332 334.893 631.694 345.763 580.807" fill="black"/>
<path fill-rule="evenodd" clip-rule="evenodd" d="M330.796 488.705C340.414 553.783 407.554 560.98 419.483 496.373C417.568 495.535 416.191 493.884 416.479 490.679C416.547 476.599 412.177 461.719 399.481 453.889C386.36 445.81 371.005 445.009 355.822 445.212C326.847 444.522 327.456 468.748 330.796 488.705M429.994 460.402C439.087 460.018 450.592 460.339 458.738 465.881C460.977 459.849 466.796 453.408 472.675 449.963C450.823 450.603 428.328 448.452 406.312 446.782C411.582 450.375 416.485 455.774 419.672 462.015C422.629 460.438 426.864 460.586 429.994 460.402M470.076 495.604C495.291 582.426 558.231 544.584 565.093 533.457C577.47 515.044 579.798 470.285 569.017 458.318C553.584 447.496 531.737 450.281 513.506 450.016C480.012 450.468 456.225 460.491 470.076 495.604M301.023 455.672C307.874 454.776 315.195 454.595 321.565 457.613C323.526 449.274 329.683 442.303 336.634 439.235C337.476 438.18 337.349 437.613 340.224 437.771C357.873 432.465 377.622 435.272 394.582 440.714C421.368 442.97 449.47 444.749 476.481 447.858C501.783 436.491 578.143 434.825 582.888 462.842C588.857 461.949 599.023 457.249 604.039 463.624C640.831 457.385 678.847 466.056 715.799 469.918C725.1 471.631 729.891 490.097 719.333 489.844C713.397 488.233 719.515 478.346 711.523 477.603C675.87 473.707 640.998 468.181 604.981 467.534C606.234 473.756 581.159 474.16 580.789 470.527C580.735 470.555 580.679 470.573 580.624 470.597C586.82 493.696 581.228 526.939 570.03 541.263C554.341 560.018 514.952 565.399 497.487 553.332C474.957 542.194 451.52 486.286 458.103 467.712C446.155 463.924 434.343 465.061 421.943 466.99C424.781 475.012 429.682 494.759 422.632 496.471C423.926 535.676 388.258 560.138 355.377 544.056C326.917 530.692 316.965 488.391 320.447 462.716C316.904 469.564 287.156 462.108 301.023 455.672" fill="black"/>
</svg>
